<svg width="400" height="400">
  <!-- Chessboard -->
  <text x="45" y="20" font-size="15" fill="grey">a</text>
  <text x="85" y="20" font-size="15" fill="grey">b</text>
  <text x="125" y="20" font-size="15" fill="grey">c</text>
  <text x="165" y="20" font-size="15" fill="grey">d</text>
  <text x="205" y="20" font-size="15" fill="grey">e</text>
  <text x="245" y="20" font-size="15" fill="grey">f</text>
  <text x="285" y="20" font-size="15" fill="grey">g</text>
  <text x="325" y="20" font-size="15" fill="grey">h</text>
  <text x="45" y="370" font-size="15" fill="grey">a</text>
  <text x="85" y="370" font-size="15" fill="grey">b</text>
  <text x="125" y="370" font-size="15" fill="grey">c</text>
  <text x="165" y="370" font-size="15" fill="grey">d</text>
  <text x="205" y="370" font-size="15" fill="grey">e</text>
  <text x="245" y="370" font-size="15" fill="grey">f</text>
  <text x="285" y="370" font-size="15" fill="grey">g</text>
  <text x="325" y="370" font-size="15" fill="grey">h</text>
  <text x="10" y="55" font-size="15" fill="grey">8</text>
  <text x="10" y="95" font-size="15" fill="grey">7</text>
  <text x="10" y="135" font-size="15" fill="grey">6</text>
  <text x="10" y="175" font-size="15" fill="grey">5</text>
  <text x="10" y="215" font-size="15" fill="grey">4</text>
  <text x="10" y="255" font-size="15" fill="grey">3</text>
  <text x="10" y="295" font-size="15" fill="grey">2</text>
  <text x="10" y="335" font-size="15" fill="grey">1</text>
  <text x="360" y="55" font-size="15" fill="grey">8</text>
  <text x="360" y="95" font-size="15" fill="grey">7</text>
  <text x="360" y="135" font-size="15" fill="grey">6</text>
  <text x="360" y="175" font-size="15" fill="grey">5</text>
  <text x="360" y="215" font-size="15" fill="grey">4</text>
  <text x="360" y="255" font-size="15" fill="grey">3</text>
  <text x="360" y="295" font-size="15" fill="grey">2</text>
  <text x="360" y="335" font-size="15" fill="grey">1</text>
  <rect x="30" y="30" width="40" height="40" fill="#D8AF87"/>
  <rect x="70" y="30" width="40" height="40" fill="#B58863"/>
  <rect x="110" y="30" width="40" height="40" fill="#D8AF87"/>
  <rect x="150" y="30" width="40" height="40" fill="#B58863"/>
  <rect x="190" y="30" width="40" height="40" fill="#D8AF87"/>
  <rect x="230" y="30" width="40" height="40" fill="#B58863"/>
  <rect x="270" y="30" width="40" height="40" fill="#D8AF87"/>
  <rect x="310" y="30" width="40" height="40" fill="#B58863"/>
  <rect x="30" y="70" width="40" height="40" fill="#B58863"/>
  <rect x="70" y="70" width="40" height="40" fill="#D8AF87"/>
  <rect x="110" y="70" width="40" height="40" fill="#B58863"/>
  <rect x="150" y="70" width="40" height="40" fill="#D8AF87"/>
  <rect x="190" y="70" width="40" height="40" fill="#B58863"/>
  <rect x="230" y="70" width="40" height="40" fill="#D8AF87"/>
  <rect x="270" y="70" width="40" height="40" fill="#B58863"/>
  <rect x="310" y="70" width="40" height="40" fill="#D8AF87"/>
  <rect x="30" y="110" width="40" height="40" fill="#D8AF87"/>
  <rect x="70" y="110" width="40" height="40" fill="#B58863"/>
  <rect x="110" y="110" width="40" height="40" fill="#D8AF87"/>
  <rect x="150" y="110" width="40" height="40" fill="#B58863"/>
  <rect x="190" y="110" width="40" height="40" fill="#D8AF87"/>
  <rect x="230" y="110" width="40" height="40" fill="#B58863"/>
  <rect x="270" y="110" width="40" height="40" fill="#D8AF87"/>
  <rect x="310" y="110" width="40" height="40" fill="#B58863"/>
  <rect x="30" y="150" width="40" height="40" fill="#B58863"/>
  <rect x="70" y="150" width="40" height="40" fill="#D8AF87"/>
  <rect x="110" y="150" width="40" height="40" fill="#B58863"/>
  <rect x="150" y="150" width="40" height="40" fill="#D8AF87"/>
  <rect x="190" y="150" width="40" height="40" fill="#B58863"/>
  <rect x="230" y="150" width="40" height="40" fill="#D8AF87"/>
  <rect x="270" y="150" width="40" height="40" fill="#B58863"/>
  <rect x="310" y="150" width="40" height="40" fill="#D8AF87"/>
  <rect x="30" y="190" width="40" height="40" fill="#D8AF87"/>
  <rect x="70" y="190" width="40" height="40" fill="#B58863"/>
  <rect x="110" y="190" width="40" height="40" fill="#D8AF87"/>
  <rect x="150" y="190" width="40" height="40" fill="#B58863"/>
  <rect x="190" y="190" width="40" height="40" fill="#D8AF87"/>
  <rect x="230" y="190" width="40" height="40" fill="#B58863"/>
  <rect x="270" y="190" width="40" height="40" fill="#D8AF87"/>
  <rect x="310" y="190" width="40" height="40" fill="#B58863"/>
  <rect x="30" y="230" width="40" height="40" fill="#B58863"/>
  <rect x="70" y="230" width="40" height="40" fill="#D8AF87"/>
  <rect x="110" y="230" width="40" height="40" fill="#B58863"/>
  <rect x="150" y="230" width="40" height="40" fill="#D8AF87"/>
  <rect x="190" y="230" width="40" height="40" fill="#B58863"/>
  <rect x="230" y="230" width="40" height="40" fill="#D8AF87"/>
  <rect x="270" y="230" width="40" height="40" fill="#B58863"/>
  <rect x="310" y="230" width="40" height="40" fill="#D8AF87"/>
  <rect x="30" y="270" width="40" height="40" fill="#D8AF87"/>
  <rect x="70" y="270" width="40" height="40" fill="#B58863"/>
  <rect x="110" y="270" width="40" height="40" fill="#D8AF87"/>
  <rect x="150" y="270" width="40" height="40" fill="#B58863"/>
  <rect x="190" y="270" width="40" height="40" fill="#D8AF87"/>
  <rect x="230" y="270" width="40" height="40" fill="#B58863"/>
  <rect x="270" y="270" width="40" height="40" fill="#D8AF87"/>
  <rect x="310" y="270" width="40" height="40" fill="#B58863"/>
  <rect x="30" y="310" width="40" height="40" fill="#B58863"/>
  <rect x="70" y="310" width="40" height="40" fill="#D8AF87"/>
  <rect x="110" y="310" width="40" height="40" fill="#B58863"/>
  <rect x="150" y="310" width="40" height="40" fill="#D8AF87"/>
  <rect x="190" y="310" width="40" height="40" fill="#B58863"/>
  <rect x="230" y="310" width="40" height="40" fill="#D8AF87"/>
  <rect x="270" y="310" width="40" height="40" fill="#B58863"/>
  <rect x="310" y="310" width="40" height="40" fill="#D8AF87"/>
  <!-- Chess Pieces -->
  <text x="33" y="63" font-size="35" fill="black">&#9820;</text>
  <text x="73" y="63" font-size="35" fill="black">&#9822;</text>
  <text x="113" y="63" font-size="35" fill="black">&#9821;</text>
  <text x="153" y="63" font-size="35" fill="black">&#9819;</text>
  <text x="193" y="63" font-size="35" fill="black">&#9818;</text>
  <text x="233" y="63" font-size="35" fill="black">&#9821;</text>
  <text x="273" y="63" font-size="35" fill="black">&#9822;</text>
  <text x="313" y="63" font-size="35" fill="black">&#9820;</text>
  <text x="33" y="103" font-size="35" fill="black">&#9823;</text>
  <text x="73" y="103" font-size="35" fill="black">&#9823;</text>
  <text x="113" y="103" font-size="35" fill="black">&#9823;</text>
  <text x="153" y="103" font-size="35" fill="black">&#9823;</text>
  <text x="193" y="103" font-size="35" fill="black">&#9823;</text>
  <text x="233" y="103" font-size="35" fill="black">&#9823;</text>
  <text x="273" y="103" font-size="35" fill="black">&#9823;</text>
  <text x="313" y="103" font-size="35" fill="black">&#9823;</text>
  <text x="33" y="303" font-size="35" fill="white">&#9823;</text>
  <text x="73" y="303" font-size="35" fill="white">&#9823;</text>
  <text x="113" y="303" font-size="35" fill="white">&#9823;</text>
  <text x="153" y="303" font-size="35" fill="white">&#9823;</text>
  <text x="193" y="303" font-size="35" fill="white">&#9823;</text>
  <text x="233" y="303" font-size="35" fill="white">&#9823;</text>
  <text x="273" y="303" font-size="35" fill="white">&#9823;</text>
  <text x="313" y="303" font-size="35" fill="white">&#9823;</text>
  <text x="33" y="343" font-size="35" fill="white">&#9820;</text>
  <text x="73" y="343" font-size="35" fill="white">&#9822;</text>
  <text x="113" y="343" font-size="35" fill="white">&#9821;</text>
  <text x="153" y="343" font-size="35" fill="white">&#9819;</text>
  <text x="193" y="343" font-size="35" fill="white">&#9818;</text>
  <text x="233" y="343" font-size="35" fill="white">&#9821;</text>
  <text x="273" y="343" font-size="35" fill="white">&#9822;</text>
  <text x="313" y="343" font-size="35" fill="white">&#9820;</text>
</svg>
