<svg width="400" height="400" xmlns="http://www.w3.org/2000/svg">
  <!-- Chessboard Text -->
  <text x="60" y="20" font-size="15" fill="grey" dominant-baseline="middle" text-anchor="middle">a</text>
  <text x="100" y="20" font-size="15" fill="grey" dominant-baseline="middle" text-anchor="middle">b</text>
  <text x="140" y="20" font-size="15" fill="grey" dominant-baseline="middle" text-anchor="middle">c</text>
  <text x="180" y="20" font-size="15" fill="grey" dominant-baseline="middle" text-anchor="middle">d</text>
  <text x="220" y="20" font-size="15" fill="grey" dominant-baseline="middle" text-anchor="middle">e</text>
  <text x="260" y="20" font-size="15" fill="grey" dominant-baseline="middle" text-anchor="middle">f</text>
  <text x="300" y="20" font-size="15" fill="grey" dominant-baseline="middle" text-anchor="middle">g</text>
  <text x="340" y="20" font-size="15" fill="grey" dominant-baseline="middle" text-anchor="middle">h</text>
  <text x="60" y="380" font-size="15" fill="grey" dominant-baseline="middle" text-anchor="middle">a</text>
  <text x="100" y="380" font-size="15" fill="grey" dominant-baseline="middle" text-anchor="middle">b</text>
  <text x="140" y="380" font-size="15" fill="grey" dominant-baseline="middle" text-anchor="middle">c</text>
  <text x="180" y="380" font-size="15" fill="grey" dominant-baseline="middle" text-anchor="middle">d</text>
  <text x="220" y="380" font-size="15" fill="grey" dominant-baseline="middle" text-anchor="middle">e</text>
  <text x="260" y="380" font-size="15" fill="grey" dominant-baseline="middle" text-anchor="middle">f</text>
  <text x="300" y="380" font-size="15" fill="grey" dominant-baseline="middle" text-anchor="middle">g</text>
  <text x="340" y="380" font-size="15" fill="grey" dominant-baseline="middle" text-anchor="middle">h</text>
  <text x="20" y="60" font-size="15" fill="grey" dominant-baseline="middle" text-anchor="middle">8</text>
  <text x="20" y="100" font-size="15" fill="grey" dominant-baseline="middle" text-anchor="middle">7</text>
  <text x="20" y="140" font-size="15" fill="grey" dominant-baseline="middle" text-anchor="middle">6</text>
  <text x="20" y="180" font-size="15" fill="grey" dominant-baseline="middle" text-anchor="middle">5</text>
  <text x="20" y="220" font-size="15" fill="grey" dominant-baseline="middle" text-anchor="middle">4</text>
  <text x="20" y="260" font-size="15" fill="grey" dominant-baseline="middle" text-anchor="middle">3</text>
  <text x="20" y="300" font-size="15" fill="grey" dominant-baseline="middle" text-anchor="middle">2</text>
  <text x="20" y="340" font-size="15" fill="grey" dominant-baseline="middle" text-anchor="middle">1</text>
  <text x="380" y="60" font-size="15" fill="grey" dominant-baseline="middle" text-anchor="middle">8</text>
  <text x="380" y="100" font-size="15" fill="grey" dominant-baseline="middle" text-anchor="middle">7</text>
  <text x="380" y="140" font-size="15" fill="grey" dominant-baseline="middle" text-anchor="middle">6</text>
  <text x="380" y="180" font-size="15" fill="grey" dominant-baseline="middle" text-anchor="middle">5</text>
  <text x="380" y="220" font-size="15" fill="grey" dominant-baseline="middle" text-anchor="middle">4</text>
  <text x="380" y="260" font-size="15" fill="grey" dominant-baseline="middle" text-anchor="middle">3</text>
  <text x="380" y="300" font-size="15" fill="grey" dominant-baseline="middle" text-anchor="middle">2</text>
  <text x="380" y="340" font-size="15" fill="grey" dominant-baseline="middle" text-anchor="middle">1</text>
  <!-- Chessboard -->
  <rect x="40" y="40" width="40" height="40" fill="#D8AF87"/>
  <rect x="80" y="40" width="40" height="40" fill="#B58863"/>
  <rect x="120" y="40" width="40" height="40" fill="#D8AF87"/>
  <rect x="160" y="40" width="40" height="40" fill="#B58863"/>
  <rect x="200" y="40" width="40" height="40" fill="#D8AF87"/>
  <rect x="240" y="40" width="40" height="40" fill="#B58863"/>
  <rect x="280" y="40" width="40" height="40" fill="#D8AF87"/>
  <rect x="320" y="40" width="40" height="40" fill="#B58863"/>
  <rect x="40" y="80" width="40" height="40" fill="#B58863"/>
  <rect x="80" y="80" width="40" height="40" fill="#D8AF87"/>
  <rect x="120" y="80" width="40" height="40" fill="#B58863"/>
  <rect x="160" y="80" width="40" height="40" fill="#D8AF87"/>
  <rect x="200" y="80" width="40" height="40" fill="#B58863"/>
  <rect x="240" y="80" width="40" height="40" fill="#D8AF87"/>
  <rect x="280" y="80" width="40" height="40" fill="#B58863"/>
  <rect x="320" y="80" width="40" height="40" fill="#D8AF87"/>
  <rect x="40" y="120" width="40" height="40" fill="#D8AF87"/>
  <rect x="80" y="120" width="40" height="40" fill="#B58863"/>
  <rect x="120" y="120" width="40" height="40" fill="#D8AF87"/>
  <rect x="160" y="120" width="40" height="40" fill="#B58863"/>
  <rect x="200" y="120" width="40" height="40" fill="#D8AF87"/>
  <rect x="240" y="120" width="40" height="40" fill="#B58863"/>
  <rect x="280" y="120" width="40" height="40" fill="#D8AF87"/>
  <rect x="320" y="120" width="40" height="40" fill="#B58863"/>
  <rect x="40" y="160" width="40" height="40" fill="#B58863"/>
  <rect x="80" y="160" width="40" height="40" fill="#D8AF87"/>
  <rect x="120" y="160" width="40" height="40" fill="#B58863"/>
  <rect x="160" y="160" width="40" height="40" fill="#D8AF87"/>
  <rect x="200" y="160" width="40" height="40" fill="#B58863"/>
  <rect x="240" y="160" width="40" height="40" fill="#D8AF87"/>
  <rect x="280" y="160" width="40" height="40" fill="#B58863"/>
  <rect x="320" y="160" width="40" height="40" fill="#D8AF87"/>
  <rect x="40" y="200" width="40" height="40" fill="#D8AF87"/>
  <rect x="80" y="200" width="40" height="40" fill="#B58863"/>
  <rect x="120" y="200" width="40" height="40" fill="#D8AF87"/>
  <rect x="160" y="200" width="40" height="40" fill="#B58863"/>
  <rect x="200" y="200" width="40" height="40" fill="#D8AF87"/>
  <rect x="240" y="200" width="40" height="40" fill="#B58863"/>
  <rect x="280" y="200" width="40" height="40" fill="#D8AF87"/>
  <rect x="320" y="200" width="40" height="40" fill="#B58863"/>
  <rect x="40" y="240" width="40" height="40" fill="#B58863"/>
  <rect x="80" y="240" width="40" height="40" fill="#D8AF87"/>
  <rect x="120" y="240" width="40" height="40" fill="#B58863"/>
  <rect x="160" y="240" width="40" height="40" fill="#D8AF87"/>
  <rect x="200" y="240" width="40" height="40" fill="#B58863"/>
  <rect x="240" y="240" width="40" height="40" fill="#D8AF87"/>
  <rect x="280" y="240" width="40" height="40" fill="#B58863"/>
  <rect x="320" y="240" width="40" height="40" fill="#D8AF87"/>
  <rect x="40" y="280" width="40" height="40" fill="#D8AF87"/>
  <rect x="80" y="280" width="40" height="40" fill="#B58863"/>
  <rect x="120" y="280" width="40" height="40" fill="#D8AF87"/>
  <rect x="160" y="280" width="40" height="40" fill="#B58863"/>
  <rect x="200" y="280" width="40" height="40" fill="#D8AF87"/>
  <rect x="240" y="280" width="40" height="40" fill="#B58863"/>
  <rect x="280" y="280" width="40" height="40" fill="#D8AF87"/>
  <rect x="320" y="280" width="40" height="40" fill="#B58863"/>
  <rect x="40" y="320" width="40" height="40" fill="#B58863"/>
  <rect x="80" y="320" width="40" height="40" fill="#D8AF87"/>
  <rect x="120" y="320" width="40" height="40" fill="#B58863"/>
  <rect x="160" y="320" width="40" height="40" fill="#D8AF87"/>
  <rect x="200" y="320" width="40" height="40" fill="#B58863"/>
  <rect x="240" y="320" width="40" height="40" fill="#D8AF87"/>
  <rect x="280" y="320" width="40" height="40" fill="#B58863"/>
  <rect x="320" y="320" width="40" height="40" fill="#D8AF87"/>
  <!-- Chess Pieces -->
  <text x="60" y="60" font-size="40" fill="black" dominant-baseline="middle" text-anchor="middle">&#9820;</text>
  <text x="100" y="60" font-size="35" fill="black" dominant-baseline="middle" text-anchor="middle">&#9822;</text>
  <text x="140" y="60" font-size="35" fill="black" dominant-baseline="middle" text-anchor="middle">&#9821;</text>
  <text x="180" y="60" font-size="35" fill="black" dominant-baseline="middle" text-anchor="middle">&#9819;</text>
  <text x="220" y="60" font-size="35" fill="black" dominant-baseline="middle" text-anchor="middle">&#9818;</text>
  <text x="260" y="60" font-size="35" fill="black" dominant-baseline="middle" text-anchor="middle">&#9821;</text>
  <text x="300" y="60" font-size="35" fill="black" dominant-baseline="middle" text-anchor="middle">&#9822;</text>
  <text x="340" y="60" font-size="35" fill="black" dominant-baseline="middle" text-anchor="middle">&#9820;</text>
  <text x="60" y="100" font-size="35" fill="black" dominant-baseline="middle" text-anchor="middle">&#9823;</text>
  <text x="100" y="100" font-size="35" fill="black" dominant-baseline="middle" text-anchor="middle">&#9823;</text>
  <text x="140" y="100" font-size="35" fill="black" dominant-baseline="middle" text-anchor="middle">&#9823;</text>
  <text x="180" y="100" font-size="35" fill="black" dominant-baseline="middle" text-anchor="middle">&#9823;</text>
  <text x="220" y="100" font-size="35" fill="black" dominant-baseline="middle" text-anchor="middle">&#9823;</text>
  <text x="260" y="100" font-size="35" fill="black" dominant-baseline="middle" text-anchor="middle">&#9823;</text>
  <text x="300" y="100" font-size="35" fill="black" dominant-baseline="middle" text-anchor="middle">&#9823;</text>
  <text x="340" y="100" font-size="35" fill="black" dominant-baseline="middle" text-anchor="middle">&#9823;</text>
  <text x="60" y="300" font-size="35" fill="white" dominant-baseline="middle" text-anchor="middle">&#9823;</text>
  <text x="100" y="300" font-size="35" fill="white" dominant-baseline="middle" text-anchor="middle">&#9823;</text>
  <text x="140" y="300" font-size="35" fill="white" dominant-baseline="middle" text-anchor="middle">&#9823;</text>
  <text x="180" y="300" font-size="35" fill="white" dominant-baseline="middle" text-anchor="middle">&#9823;</text>
  <text x="220" y="300" font-size="35" fill="white" dominant-baseline="middle" text-anchor="middle">&#9823;</text>
  <text x="260" y="300" font-size="35" fill="white" dominant-baseline="middle" text-anchor="middle">&#9823;</text>
  <text x="300" y="300" font-size="35" fill="white" dominant-baseline="middle" text-anchor="middle">&#9823;</text>
  <text x="340" y="300" font-size="35" fill="white" dominant-baseline="middle" text-anchor="middle">&#9823;</text>
  <text x="60" y="340" font-size="35" fill="white" dominant-baseline="middle" text-anchor="middle">&#9820;</text>
  <text x="100" y="340" font-size="35" fill="white" dominant-baseline="middle" text-anchor="middle">&#9822;</text>
  <text x="140" y="340" font-size="35" fill="white" dominant-baseline="middle" text-anchor="middle">&#9821;</text>
  <text x="180" y="340" font-size="35" fill="white" dominant-baseline="middle" text-anchor="middle">&#9819;</text>
  <text x="220" y="340" font-size="35" fill="white" dominant-baseline="middle" text-anchor="middle">&#9818;</text>
  <text x="260" y="340" font-size="35" fill="white" dominant-baseline="middle" text-anchor="middle">&#9821;</text>
  <text x="300" y="340" font-size="35" fill="white" dominant-baseline="middle" text-anchor="middle">&#9822;</text>
  <text x="340" y="340" font-size="35" fill="white" dominant-baseline="middle" text-anchor="middle">&#9820;</text>
</svg>
